<svg xmlns="http://www.w3.org/2000/svg" xmlns:xlink="http://www.w3.org/1999/xlink" width="500" zoomAndPan="magnify" viewBox="0 0 375 374.999991" height="500" preserveAspectRatio="xMidYMid meet" version="1.0"><defs><clipPath id="id1"><path d="M 254 317 L 286 317 L 286 330.566406 L 254 330.566406 Z M 254 317 " clip-rule="nonzero"/></clipPath><clipPath id="id2"><path d="M 33.273438 44.066406 L 341.523438 44.066406 L 341.523438 330.566406 L 33.273438 330.566406 Z M 33.273438 44.066406 " clip-rule="nonzero"/></clipPath><clipPath id="id3"><path d="M 149.777344 147.984375 L 225.527344 147.984375 L 225.527344 238 L 149.777344 238 Z M 149.777344 147.984375 " clip-rule="nonzero"/></clipPath><clipPath id="id4"><path d="M 171 244 L 194 244 L 194 266.484375 L 171 266.484375 Z M 171 244 " clip-rule="nonzero"/></clipPath></defs><rect x="-37.5" width="450" fill="#ffffff" y="-37.499999" height="449.999989" fill-opacity="1"/><rect x="-37.5" width="450" fill="#ffffff" y="-37.499999" height="449.999989" fill-opacity="1"/><rect x="-37.5" width="450" fill="#212529" y="-37.499999" height="449.999989" fill-opacity="1"/><g clip-path="url(#id1)"><path fill="#404041" d="M 254.5625 317.121094 L 263.632812 330.597656 L 285.265625 330.597656 L 276.191406 317.121094 Z M 254.5625 317.121094 " fill-opacity="1" fill-rule="nonzero"/></g><path fill="#a6a6a6" d="M 266.953125 298.832031 L 276.023438 312.308594 L 299.398438 312.308594 L 290.328125 298.832031 Z M 266.953125 298.832031 " fill-opacity="1" fill-rule="nonzero"/><path fill="#08bb9b" d="M 218.746094 281.5 L 227.664062 294.757812 L 227.332031 294.980469 L 251.265625 294.980469 L 242.195312 281.5 Z M 218.746094 281.5 " fill-opacity="1" fill-rule="nonzero"/><path fill="#08bb9b" d="M 124.746094 281.5 C 123.976562 281.5 123.351562 280.875 123.351562 280.105469 L 123.351562 168.328125 L 187.398438 108.800781 L 251.449219 168.332031 L 251.449219 258.351562 L 264.933594 258.351562 L 264.933594 163.441406 C 264.933594 162.816406 264.675781 162.21875 264.21875 161.792969 L 188.933594 91.820312 C 188.066406 91.015625 186.726562 91.015625 185.863281 91.820312 L 110.582031 161.792969 C 110.121094 162.21875 109.863281 162.816406 109.863281 163.441406 L 109.863281 290.210938 C 109.863281 292.84375 112 294.980469 114.632812 294.980469 L 218.535156 294.980469 L 209.464844 281.5 Z M 124.746094 281.5 " fill-opacity="1" fill-rule="nonzero"/><path fill="#a6a6a6" d="M 108.53125 298.832031 C 107.140625 298.832031 106.011719 297.703125 106.011719 296.3125 L 106.011719 161.765625 C 106.011719 161.140625 106.269531 160.542969 106.730469 160.117188 L 185.867188 86.566406 C 186.730469 85.761719 188.070312 85.761719 188.9375 86.566406 L 268.070312 160.117188 C 268.527344 160.542969 268.789062 161.140625 268.789062 161.765625 L 268.789062 247.496094 L 282.277344 247.496094 L 282.277344 192.59375 L 322.816406 192.59375 L 188.933594 68.15625 C 188.066406 67.355469 186.726562 67.355469 185.863281 68.15625 L 51.980469 192.59375 L 92.523438 192.59375 L 92.523438 303.691406 C 92.523438 308.449219 96.382812 312.308594 101.144531 312.308594 L 266.738281 312.308594 L 257.667969 298.832031 Z M 108.53125 298.832031 " fill-opacity="1" fill-rule="nonzero"/><g clip-path="url(#id2)"><path fill="#ffffff" d="M 101.144531 317.121094 C 93.722656 317.121094 87.703125 311.109375 87.703125 303.6875 L 87.703125 197.40625 L 46.890625 197.40625 L 46.890625 190.746094 L 185.863281 61.585938 C 186.726562 60.78125 188.066406 60.78125 188.933594 61.585938 L 327.902344 190.746094 L 327.902344 197.40625 L 287.089844 197.40625 L 287.089844 236.636719 L 300.574219 236.636719 L 300.574219 210.878906 L 336.777344 210.878906 C 339.324219 210.878906 341.386719 208.820312 341.386719 206.273438 L 341.386719 191.445312 C 341.386719 187.25 339.636719 183.246094 336.5625 180.386719 L 202.117188 55.621094 L 192.226562 45.980469 C 190.890625 44.675781 189.136719 44.082031 187.398438 44.144531 C 185.660156 44.082031 183.90625 44.675781 182.570312 45.980469 L 172.675781 55.617188 L 117.132812 107.167969 L 117.132812 96.214844 C 117.132812 93.996094 115.332031 92.195312 113.109375 92.195312 L 78.246094 92.195312 C 76.027344 92.195312 74.222656 93.996094 74.222656 96.214844 L 74.222656 146.996094 L 38.230469 180.390625 C 35.15625 183.25 33.410156 187.253906 33.410156 191.449219 L 33.410156 206.277344 C 33.410156 208.824219 35.472656 210.882812 38.015625 210.882812 L 74.21875 210.882812 L 74.21875 303.691406 C 74.21875 318.554688 86.273438 330.601562 101.144531 330.601562 L 254.347656 330.601562 L 245.277344 317.121094 Z M 101.144531 317.121094 " fill-opacity="1" fill-rule="nonzero"/></g><g clip-path="url(#id3)"><path fill="#d9d9d9" d="M 182.242188 237.753906 C 176.265625 237.753906 171.421875 232.929688 171.421875 226.980469 L 171.421875 212.617188 C 171.421875 206.667969 176.265625 201.847656 182.242188 201.847656 C 184.417969 201.824219 203.886719 198.253906 203.886719 183.894531 C 203.886719 176.710938 196.671875 169.53125 185.851562 169.53125 C 177.046875 169.53125 171.421875 176.710938 171.421875 180.300781 C 171.421875 186.253906 166.578125 191.074219 160.601562 191.074219 C 154.621094 191.074219 149.777344 186.253906 149.777344 180.300781 C 149.777344 162.789062 166.300781 147.988281 185.851562 147.988281 C 214.707031 147.988281 225.527344 169.464844 225.527344 187.484375 C 225.527344 202.367188 217.316406 213.742188 202.394531 219.511719 C 199.148438 220.773438 195.9375 221.621094 193.0625 222.195312 L 193.0625 226.980469 C 193.0625 232.929688 188.21875 237.753906 182.242188 237.753906 Z M 182.242188 237.753906 " fill-opacity="1" fill-rule="nonzero"/></g><g clip-path="url(#id4)"><path fill="#d9d9d9" d="M 193.0625 255.707031 C 193.0625 256.414062 192.996094 257.113281 192.855469 257.808594 C 192.71875 258.5 192.511719 259.175781 192.242188 259.828125 C 191.96875 260.480469 191.636719 261.101562 191.242188 261.691406 C 190.847656 262.277344 190.398438 262.824219 189.894531 263.324219 C 189.390625 263.824219 188.847656 264.269531 188.253906 264.664062 C 187.664062 265.054688 187.039062 265.386719 186.382812 265.660156 C 185.726562 265.929688 185.050781 266.132812 184.355469 266.269531 C 183.65625 266.410156 182.953125 266.476562 182.242188 266.476562 C 181.53125 266.476562 180.828125 266.410156 180.132812 266.269531 C 179.433594 266.132812 178.757812 265.929688 178.101562 265.660156 C 177.445312 265.386719 176.820312 265.054688 176.230469 264.664062 C 175.640625 264.269531 175.09375 263.824219 174.589844 263.324219 C 174.089844 262.824219 173.640625 262.277344 173.246094 261.691406 C 172.851562 261.101562 172.515625 260.480469 172.246094 259.828125 C 171.972656 259.175781 171.769531 258.5 171.628906 257.808594 C 171.492188 257.113281 171.421875 256.414062 171.421875 255.707031 C 171.421875 255 171.492188 254.296875 171.628906 253.605469 C 171.769531 252.910156 171.972656 252.238281 172.246094 251.585938 C 172.515625 250.929688 172.851562 250.308594 173.246094 249.722656 C 173.640625 249.132812 174.089844 248.589844 174.589844 248.089844 C 175.09375 247.589844 175.640625 247.144531 176.230469 246.75 C 176.820312 246.355469 177.445312 246.023438 178.101562 245.753906 C 178.757812 245.484375 179.433594 245.28125 180.132812 245.140625 C 180.828125 245.003906 181.53125 244.933594 182.242188 244.933594 C 182.953125 244.933594 183.65625 245.003906 184.355469 245.140625 C 185.050781 245.28125 185.726562 245.484375 186.382812 245.753906 C 187.039062 246.023438 187.664062 246.355469 188.253906 246.75 C 188.847656 247.144531 189.390625 247.589844 189.894531 248.089844 C 190.398438 248.589844 190.847656 249.132812 191.242188 249.722656 C 191.636719 250.308594 191.96875 250.929688 192.242188 251.585938 C 192.511719 252.238281 192.71875 252.910156 192.855469 253.605469 C 192.996094 254.296875 193.0625 255 193.0625 255.707031 Z M 193.0625 255.707031 " fill-opacity="1" fill-rule="nonzero"/></g></svg>