<svg xmlns="http://www.w3.org/2000/svg" xmlns:xlink="http://www.w3.org/1999/xlink" width="512" zoomAndPan="magnify" viewBox="0 0 384 383.999986" height="512" preserveAspectRatio="xMidYMid meet" version="1.0"><defs><clipPath id="id1"><path d="M 260 325 L 293 325 L 293 339.125 L 260 339.125 Z M 260 325 " clip-rule="nonzero"/></clipPath><clipPath id="id2"><path d="M 34.070312 45.125 L 349.820312 45.125 L 349.820312 339.125 L 34.070312 339.125 Z M 34.070312 45.125 " clip-rule="nonzero"/></clipPath><clipPath id="id3"><path d="M 153.375 151.535156 L 230.625 151.535156 L 230.625 244 L 153.375 244 Z M 153.375 151.535156 " clip-rule="nonzero"/></clipPath><clipPath id="id4"><path d="M 175 250 L 198 250 L 198 273.035156 L 175 273.035156 Z M 175 250 " clip-rule="nonzero"/></clipPath></defs><rect x="-38.4" width="460.8" fill="#ffffff" y="-38.399999" height="460.799983" fill-opacity="1"/><rect x="-38.4" width="460.8" fill="#ffffff" y="-38.399999" height="460.799983" fill-opacity="1"/><rect x="-38.4" width="460.8" fill="#ffffff" y="-38.399999" height="460.799983" fill-opacity="1"/><g clip-path="url(#id1)"><path fill="#283d41" d="M 260.742188 325.328125 L 270.035156 339.15625 L 292.191406 339.15625 L 282.894531 325.328125 Z M 260.742188 325.328125 " fill-opacity="1" fill-rule="nonzero"/></g><path fill="#283d41" d="M 273.433594 306.558594 L 282.726562 320.390625 L 306.667969 320.390625 L 297.375 306.558594 Z M 273.433594 306.558594 " fill-opacity="1" fill-rule="nonzero"/><path fill="#08bb9b" d="M 224.054688 288.773438 L 233.191406 302.375 L 232.851562 302.605469 L 257.367188 302.605469 L 248.074219 288.773438 Z M 224.054688 288.773438 " fill-opacity="1" fill-rule="nonzero"/><path fill="#08bb9b" d="M 127.773438 288.773438 C 126.984375 288.773438 126.34375 288.132812 126.34375 287.339844 L 126.34375 172.640625 L 191.945312 111.554688 L 257.554688 172.644531 L 257.554688 265.019531 L 271.367188 265.019531 L 271.367188 167.621094 C 271.367188 166.980469 271.101562 166.367188 270.632812 165.933594 L 193.519531 94.128906 C 192.632812 93.304688 191.257812 93.304688 190.375 94.128906 L 113.265625 165.933594 C 112.792969 166.367188 112.527344 166.980469 112.527344 167.621094 L 112.527344 297.714844 C 112.527344 300.414062 114.714844 302.605469 117.414062 302.605469 L 223.839844 302.605469 L 214.546875 288.773438 Z M 127.773438 288.773438 " fill-opacity="1" fill-rule="nonzero"/><path fill="#283d41" d="M 111.164062 306.558594 C 109.738281 306.558594 108.582031 305.398438 108.582031 303.972656 L 108.582031 165.902344 C 108.582031 165.261719 108.847656 164.648438 109.316406 164.210938 L 190.378906 88.738281 C 191.265625 87.914062 192.636719 87.914062 193.523438 88.738281 L 274.578125 164.210938 C 275.046875 164.648438 275.316406 165.261719 275.316406 165.902344 L 275.316406 253.878906 L 289.128906 253.878906 L 289.128906 197.539062 L 330.65625 197.539062 L 193.519531 69.847656 C 192.632812 69.019531 191.257812 69.019531 190.375 69.847656 L 53.238281 197.539062 L 94.765625 197.539062 L 94.765625 311.546875 C 94.765625 316.429688 98.722656 320.390625 103.597656 320.390625 L 273.214844 320.390625 L 263.925781 306.558594 Z M 111.164062 306.558594 " fill-opacity="1" fill-rule="nonzero"/><g clip-path="url(#id2)"><path fill="#404041" d="M 103.597656 325.328125 C 95.996094 325.328125 89.828125 319.15625 89.828125 311.542969 L 89.828125 202.476562 L 48.027344 202.476562 L 48.027344 195.644531 L 190.375 63.101562 C 191.257812 62.277344 192.632812 62.277344 193.519531 63.101562 L 335.863281 195.644531 L 335.863281 202.476562 L 294.0625 202.476562 L 294.0625 242.734375 L 307.875 242.734375 L 307.875 216.304688 L 344.957031 216.304688 C 347.5625 216.304688 349.675781 214.1875 349.675781 211.578125 L 349.675781 196.359375 C 349.675781 192.054688 347.882812 187.945312 344.734375 185.015625 L 207.023438 56.980469 L 196.890625 47.085938 C 195.523438 45.75 193.726562 45.136719 191.945312 45.203125 C 190.164062 45.136719 188.371094 45.75 187 47.085938 L 176.867188 56.976562 L 119.976562 109.875 L 119.976562 98.636719 C 119.976562 96.359375 118.128906 94.511719 115.855469 94.511719 L 80.144531 94.511719 C 77.871094 94.511719 76.023438 96.359375 76.023438 98.636719 L 76.023438 150.746094 L 39.15625 185.019531 C 36.003906 187.949219 34.214844 192.058594 34.214844 196.363281 L 34.214844 211.582031 C 34.214844 214.195312 36.328125 216.308594 38.9375 216.308594 L 76.019531 216.308594 L 76.019531 311.546875 C 76.019531 326.796875 88.367188 339.160156 103.597656 339.160156 L 260.523438 339.160156 L 251.230469 325.328125 Z M 103.597656 325.328125 " fill-opacity="1" fill-rule="nonzero"/></g><g clip-path="url(#id3)"><path fill="#404041" d="M 186.480469 243.578125 C 180.386719 243.578125 175.445312 238.632812 175.445312 232.535156 L 175.445312 217.808594 C 175.445312 211.707031 180.386719 206.761719 186.480469 206.761719 C 188.699219 206.738281 208.550781 203.078125 208.550781 188.351562 C 208.550781 180.988281 201.195312 173.625 190.160156 173.625 C 181.179688 173.625 175.445312 180.988281 175.445312 184.671875 C 175.445312 190.773438 170.503906 195.714844 164.410156 195.714844 C 158.3125 195.714844 153.375 190.773438 153.375 184.671875 C 153.375 166.710938 170.222656 151.535156 190.160156 151.535156 C 219.585938 151.535156 230.625 173.558594 230.625 192.035156 C 230.625 207.296875 222.246094 218.960938 207.03125 224.875 C 203.722656 226.167969 200.449219 227.035156 197.515625 227.625 L 197.515625 232.535156 C 197.515625 238.632812 192.574219 243.578125 186.480469 243.578125 Z M 186.480469 243.578125 " fill-opacity="1" fill-rule="nonzero"/></g><g clip-path="url(#id4)"><path fill="#404041" d="M 197.515625 261.988281 C 197.515625 262.714844 197.445312 263.429688 197.304688 264.144531 C 197.164062 264.855469 196.953125 265.542969 196.675781 266.214844 C 196.398438 266.886719 196.058594 267.519531 195.65625 268.125 C 195.253906 268.726562 194.796875 269.285156 194.285156 269.796875 C 193.769531 270.3125 193.214844 270.769531 192.613281 271.171875 C 192.007812 271.574219 191.371094 271.914062 190.703125 272.191406 C 190.035156 272.46875 189.34375 272.679688 188.632812 272.820312 C 187.921875 272.960938 187.203125 273.035156 186.480469 273.035156 C 185.753906 273.035156 185.039062 272.960938 184.328125 272.820312 C 183.617188 272.679688 182.925781 272.46875 182.257812 272.191406 C 181.585938 271.914062 180.953125 271.574219 180.347656 271.171875 C 179.746094 270.769531 179.1875 270.3125 178.675781 269.796875 C 178.164062 269.285156 177.707031 268.726562 177.304688 268.125 C 176.902344 267.519531 176.5625 266.886719 176.285156 266.214844 C 176.007812 265.542969 175.796875 264.855469 175.65625 264.144531 C 175.515625 263.429688 175.445312 262.714844 175.445312 261.988281 C 175.445312 261.261719 175.515625 260.542969 175.65625 259.832031 C 175.796875 259.121094 176.007812 258.429688 176.285156 257.761719 C 176.5625 257.089844 176.902344 256.453125 177.304688 255.851562 C 177.707031 255.25 178.164062 254.691406 178.675781 254.175781 C 179.1875 253.664062 179.746094 253.207031 180.347656 252.804688 C 180.953125 252.402344 181.585938 252.0625 182.257812 251.785156 C 182.925781 251.503906 183.617188 251.296875 184.328125 251.15625 C 185.039062 251.011719 185.753906 250.941406 186.480469 250.941406 C 187.203125 250.941406 187.921875 251.011719 188.632812 251.15625 C 189.34375 251.296875 190.035156 251.503906 190.703125 251.785156 C 191.371094 252.0625 192.007812 252.402344 192.613281 252.804688 C 193.214844 253.207031 193.769531 253.664062 194.285156 254.175781 C 194.796875 254.691406 195.253906 255.25 195.65625 255.851562 C 196.058594 256.453125 196.398438 257.089844 196.675781 257.761719 C 196.953125 258.429688 197.164062 259.121094 197.304688 259.832031 C 197.445312 260.542969 197.515625 261.261719 197.515625 261.988281 Z M 197.515625 261.988281 " fill-opacity="1" fill-rule="nonzero"/></g></svg>